<svg aria-hidden="true" style="position:absolute;width:0;height:0;overflow:hidden" xmlns="http://www.w3.org/2000/svg"><defs><symbol id="icon-search" viewBox="0 0 32 32"><path fill="none" stroke="#fff" style="stroke:var(--color1, #fff)" stroke-linecap="round" stroke-width="3.556" d="m28 28-5.981-5.992M25.333 14a11.334 11.334 0 1 1-22.668 0 11.334 11.334 0 0 1 22.668 0z"/></symbol><symbol id="icon-open-menu-line" viewBox="0 0 32 32"><path fill="#fff" style="fill:var(--color1, #fff)" d="M28.444 25.778H3.555a.887.887 0 0 1-.629-1.518.887.887 0 0 1 .629-.26h24.889a.887.887 0 0 1 .629 1.518.887.887 0 0 1-.629.26zM28.444 16.889H3.555a.887.887 0 0 1-.629-1.518.887.887 0 0 1 .629-.26h24.889a.887.887 0 0 1 .629 1.518.887.887 0 0 1-.629.26zM28.444 8H3.555a.887.887 0 0 1-.629-1.518.887.887 0 0 1 .629-.26h24.889a.887.887 0 0 1 .629 1.518.887.887 0 0 1-.629.26z"/></symbol><symbol id="icon-bag-buy" viewBox="0 0 28 32"><path fill="#fff" style="fill:var(--color1, #fff)" d="M13.874.889c4.05 0 7.379 3.182 7.548 7.215h-.039a.756.756 0 0 1-.066.341h.236c1.839 0 3.765 1.275 4.537 4.352l.084.363 1.162 9.361c.836 5.97-2.43 8.481-6.886 8.588l-.299.004H7.624c-4.528 0-8.018-1.65-7.251-8.185l.052-.406L1.6 13.161C2.179 9.847 4.125 8.54 6 8.451l.208-.005h.118a.977.977 0 0 1 0-.341C6.495 4.073 9.824.89 13.874.89zM9.48 13.475c-.738 0-1.335.615-1.335 1.374s.598 1.375 1.335 1.375c.738 0 1.335-.615 1.335-1.375l-.01-.172c-.082-.678-.644-1.202-1.325-1.202zm8.747 0c-.738 0-1.335.615-1.335 1.374s.598 1.375 1.335 1.375c.738 0 1.336-.615 1.336-1.375s-.598-1.374-1.336-1.374zM13.815 2.857c-2.908 0-5.265 2.349-5.265 5.247.02.113.02.228 0 .341h10.595a.993.993 0 0 1-.066-.341c0-2.898-2.357-5.247-5.265-5.247z"/></symbol></defs></svg>